<svg xmlns="http://www.w3.org/2000/svg" xmlns:xlink="http://www.w3.org/1999/xlink" version="1.1" data-diagram-type="DESCRIPTION" style="width:859px;height:1158px;background:#FFFFFF;" width="859px" height="1158px" viewBox="0 0 859 1158" zoomAndPan="magnify" preserveAspectRatio="none" contentStyleType="text/css"><?plantuml 1.2026.7?><defs/><g font-family="sans-serif" lengthAdjust="spacing"><g class="title" data-source-line="2"><text x="237.942" y="22.995" fill="#000" font-size="14" textLength="376.995" font-weight="700">PetcliniX (php-twig-mtier) — Layer Architecture</text></g><!--cluster Http\\Controller  |  HTTP Boundary--><g class="cluster" data-qualified-name="Http..Controller  .  HTTP Boundary" id="ent0003" data-source-line="12"><path d="M8.5,177.767 L237.148,177.767 A3.75,3.75 0 0 1 239.648,180.267 L246.648,197.736 L267.5,197.736 A2.5,2.5 0 0 1 270,200.236 L270,623.097 A2.5,2.5 0 0 1 267.5,625.597 L8.5,625.597 A2.5,2.5 0 0 1 6,623.097 L6,180.267 A2.5,2.5 0 0 1 8.5,177.767" style="stroke:#888;stroke-width:1.5;" fill="#FAECE7"/><line x1="6" y1="197.736" x2="246.648" y2="197.736" style="stroke:#888;stroke-width:1.5;"/><text x="10" y="190.906" fill="#000" font-size="12" textLength="227.648" font-weight="700">Http\Controller  |  HTTP Boundary</text></g><!--cluster Service  |  Business Logic--><g class="cluster" data-qualified-name="Service  .  Business Logic" id="ent0008" data-source-line="19"><path d="M514.5,536.647 L686.277,536.647 A3.75,3.75 0 0 1 688.777,539.147 L695.777,556.616 L695.5,556.616 A2.5,2.5 0 0 1 698,559.116 L698,748.067 A2.5,2.5 0 0 1 695.5,750.567 L514.5,750.567 A2.5,2.5 0 0 1 512,748.067 L512,539.147 A2.5,2.5 0 0 1 514.5,536.647" style="stroke:#888;stroke-width:1.5;" fill="#FFF2D0"/><line x1="512" y1="556.616" x2="695.777" y2="556.616" style="stroke:#888;stroke-width:1.5;"/><text x="516" y="549.786" fill="#000" font-size="12" textLength="170.777" font-weight="700">Service  |  Business Logic</text></g><!--cluster Repository  |  Persistence--><g class="cluster" data-qualified-name="Repository  .  Persistence" id="ent0011" data-source-line="24"><path d="M377.5,797.567 L551.703,797.567 A3.75,3.75 0 0 1 554.203,800.067 L561.203,817.536 L561.5,817.536 A2.5,2.5 0 0 1 564,820.036 L564,877.037 A2.5,2.5 0 0 1 561.5,879.537 L377.5,879.537 A2.5,2.5 0 0 1 375,877.037 L375,800.067 A2.5,2.5 0 0 1 377.5,797.567" style="stroke:#888;stroke-width:1.5;" fill="#E1F5EE"/><line x1="375" y1="817.536" x2="561.203" y2="817.536" style="stroke:#888;stroke-width:1.5;"/><text x="379" y="810.706" fill="#000" font-size="12" textLength="173.203" font-weight="700">Repository  |  Persistence</text></g><!--cluster Domain  |  Shared Centre\n(zero outbound dependencies)--><g class="cluster" data-qualified-name="Domain  .  Shared Centre.n.zero outbound dependencies." id="ent0013" data-source-line="28"><path d="M520.5,926.537 L728.922,926.537 A3.75,3.75 0 0 1 731.422,929.037 L738.422,960.474 L738.5,960.474 A2.5,2.5 0 0 1 741,962.974 L741,1020.007 A2.5,2.5 0 0 1 738.5,1022.507 L520.5,1022.507 A2.5,2.5 0 0 1 518,1020.007 L518,929.037 A2.5,2.5 0 0 1 520.5,926.537" style="stroke:#888;stroke-width:1.5;" fill="#FFF8E8"/><line x1="518" y1="960.474" x2="738.422" y2="960.474" style="stroke:#888;stroke-width:1.5;"/><text x="540.738" y="939.676" fill="#000" font-size="12" textLength="169.945" font-weight="700">Domain  |  Shared Centre</text><text x="522" y="953.644" fill="#000" font-size="12" textLength="207.422" font-weight="700">(zero outbound dependencies)</text></g><!--cluster Infrastructure--><g class="cluster" data-qualified-name="Infrastructure" id="ent0015" data-source-line="32"><path d="M268.5,933.547 L364.533,933.547 A3.75,3.75 0 0 1 367.033,936.047 L374.033,953.516 L483.5,953.516 A2.5,2.5 0 0 1 486,956.016 L486,1026.987 A2.5,2.5 0 0 1 483.5,1029.487 L268.5,1029.487 A2.5,2.5 0 0 1 266,1026.987 L266,936.047 A2.5,2.5 0 0 1 268.5,933.547" style="stroke:#888;stroke-width:1.5;" fill="#EEEDFE"/><line x1="266" y1="953.516" x2="374.033" y2="953.516" style="stroke:#888;stroke-width:1.5;"/><text x="270" y="946.686" fill="#000" font-size="12" textLength="95.033" font-weight="700">Infrastructure</text></g><!--entity Router--><g class="entity" data-qualified-name="Http..Controller  .  HTTP Boundary.Router" id="ent0004" data-source-line="13"><rect x="139.85" y="209.767" width="60.307" height="33.969" fill="#F1F1F1" style="stroke:#181818;stroke-width:0.5;" rx="2.5" ry="2.5"/><text x="149.85" y="230.906" fill="#000" font-size="12" textLength="40.307">Router</text></g><!--entity Middleware\n(Auth/Owner/Vet/Admin)--><g class="entity" data-qualified-name="Http..Controller  .  HTTP Boundary.Middleware.n.Auth.Owner.Vet.Admin." id="ent0005" data-source-line="14"><rect x="86.22" y="318.737" width="167.551" height="47.938" fill="#F1F1F1" style="stroke:#181818;stroke-width:0.5;" rx="2.5" ry="2.5"/><text x="96.22" y="339.876" fill="#000" font-size="12" textLength="69.123">Middleware</text><text x="96.22" y="353.844" fill="#000" font-size="12" textLength="147.551">(Auth/Owner/Vet/Admin)</text></g><!--entity Controllers--><g class="entity" data-qualified-name="Http..Controller  .  HTTP Boundary.Controllers" id="ent0006" data-source-line="15"><rect x="168.23" y="441.677" width="85.543" height="33.969" fill="#F1F1F1" style="stroke:#181818;stroke-width:0.5;" rx="2.5" ry="2.5"/><text x="178.23" y="462.816" fill="#000" font-size="12" textLength="65.543">Controllers</text></g><!--entity Validation\n(ErrorBag / Input / Validate)--><g class="entity" data-qualified-name="Http..Controller  .  HTTP Boundary.Validation.n.ErrorBag . Input . Validate." id="ent0007" data-source-line="16"><rect x="22" y="561.657" width="185.996" height="47.938" fill="#F1F1F1" style="stroke:#181818;stroke-width:0.5;" rx="2.5" ry="2.5"/><text x="32" y="582.796" fill="#000" font-size="12" textLength="60.188">Validation</text><text x="32" y="596.764" fill="#000" font-size="12" textLength="165.996">(ErrorBag / Input / Validate)</text></g><!--entity ServiceFactory--><g class="entity" data-qualified-name="Service  .  Business Logic.ServiceFactory" id="ent0009" data-source-line="20"><rect x="528.36" y="568.647" width="109.285" height="33.969" fill="#F1F1F1" style="stroke:#181818;stroke-width:0.5;" rx="2.5" ry="2.5"/><text x="538.36" y="589.786" fill="#000" font-size="12" textLength="89.285">ServiceFactory</text></g><!--entity Services--><g class="entity" data-qualified-name="Service  .  Business Logic.Services" id="ent0010" data-source-line="21"><rect x="538.7" y="700.597" width="70.602" height="33.969" fill="#F1F1F1" style="stroke:#181818;stroke-width:0.5;" rx="2.5" ry="2.5"/><text x="548.7" y="721.736" fill="#000" font-size="12" textLength="50.602">Services</text></g><!--entity Repositories--><g class="entity" data-qualified-name="Repository  .  Persistence.Repositories" id="ent0012" data-source-line="25"><rect x="404.89" y="829.567" width="94.215" height="33.969" fill="#F1F1F1" style="stroke:#181818;stroke-width:0.5;" rx="2.5" ry="2.5"/><text x="414.89" y="850.706" fill="#000" font-size="12" textLength="74.215">Repositories</text></g><!--entity Value Objects & Enums--><g class="entity" data-qualified-name="Domain  .  Shared Centre.n.zero outbound dependencies..Value Objects . Enums" id="ent0014" data-source-line="29"><rect x="540.62" y="972.537" width="160.754" height="33.969" fill="#F1F1F1" style="stroke:#181818;stroke-width:0.5;" rx="2.5" ry="2.5"/><text x="550.62" y="993.676" fill="#000" font-size="12" textLength="140.754">Value Objects &amp; Enums</text></g><!--entity Database\n(connection + transactions)--><g class="entity" data-qualified-name="Infrastructure.Database.n.connection . transactions." id="ent0016" data-source-line="33"><rect x="282.4" y="965.547" width="187.203" height="47.938" fill="#F1F1F1" style="stroke:#181818;stroke-width:0.5;" rx="2.5" ry="2.5"/><text x="292.4" y="986.686" fill="#000" font-size="12" textLength="57.258">Database</text><text x="292.4" y="1000.654" fill="#000" font-size="12" textLength="167.203">(connection + transactions)</text></g><!--entity Client--><g class="entity" data-qualified-name="Client" id="ent0001" data-source-line="9"><ellipse cx="170" cy="51.297" rx="8" ry="8" fill="#F1F1F1" style="stroke:#181818;stroke-width:0.5;"/><path d="M170,59.297 L170,86.297 M157,67.297 L183,67.297 M170,86.297 L157,101.297 M170,86.297 L183,101.297" style="stroke:#181818;stroke-width:0.5;" fill="none"/><text x="152.63" y="113.936" fill="#000" font-size="12" textLength="34.74">Client</text></g><!--entity db--><g class="entity" data-qualified-name="db" id="ent0002" data-source-line="10"><path d="M340.6,1100.487 C340.6,1090.487 376,1090.487 376,1090.487 C376,1090.487 411.401,1090.487 411.401,1100.487 L411.401,1123.456 C411.401,1133.456 376,1133.456 376,1133.456 C376,1133.456 340.6,1133.456 340.6,1123.456 L340.6,1100.487" style="stroke:#181818;stroke-width:0.5;" fill="#F1F1F1"/><path d="M340.6,1100.487 C340.6,1110.487 376,1110.487 376,1110.487 C376,1110.487 411.401,1110.487 411.401,1100.487" style="stroke:#181818;stroke-width:0.5;" fill="none"/><text x="350.6" y="1125.626" fill="#000" font-size="12" textLength="50.801">MariaDB</text></g><!--link Client to Router--><g class="link" data-entity-1="ent0001" data-entity-2="ent0004" id="lnk17" data-source-line="36" data-link-type="dependency"><path d="M170,116.997 C170,146.677 170,182.307 170,204.557" style="stroke:#555;stroke-width:1;" fill="none" id="Client-to-Router"/><polygon points="170,209.557,174,200.557,170,204.557,166,200.557,170,209.557" fill="#555" style="stroke:#555;stroke-width:1;stroke-linejoin:miter;stroke-miterlimit:10;"/><text x="171" y="158.906" fill="#000" font-size="12" textLength="80.613">HTTP request</text></g><!--link Router to Middleware\n(Auth/Owner/Vet/Admin)--><g class="link" data-entity-1="ent0004" data-entity-2="ent0005" id="lnk18" data-source-line="37" data-link-type="dependency"><path d="M170,244.077 C170,263.527 170,291.157 170,313.287" style="stroke:#555;stroke-width:1;" fill="none" id="Router-to-Middleware\n(Auth/Owner/Vet/Admin)"/><polygon points="170,318.287,174,309.287,170,313.287,166,309.287,170,318.287" fill="#555" style="stroke:#555;stroke-width:1;stroke-linejoin:miter;stroke-miterlimit:10;"/><text x="171" y="285.876" fill="#000" font-size="12" textLength="53.865">role gate</text></g><!--link Middleware\n(Auth/Owner/Vet/Admin) to Controllers--><g class="link" data-entity-1="ent0005" data-entity-2="ent0006" id="lnk19" data-source-line="38" data-link-type="dependency"><path d="M178.4,367.047 C186.36,389.177 196.438,417.172 203.438,436.642" style="stroke:#555;stroke-width:1;" fill="none" id="Middleware\n(Auth/Owner/Vet/Admin)-to-Controllers"/><polygon points="205.13,441.347,205.849,431.524,203.438,436.642,198.321,434.231,205.13,441.347" fill="#555" style="stroke:#555;stroke-width:1;stroke-linejoin:miter;stroke-miterlimit:10;"/><text x="195.17" y="408.816" fill="#000" font-size="12" textLength="52.471">forwards</text></g><!--link Controllers to Validation\n(ErrorBag / Input / Validate)--><g class="link" data-entity-1="ent0006" data-entity-2="ent0007" id="lnk20" data-source-line="39" data-link-type="dependency"><path d="M167.85,466.397 C126.27,473.877 67.71,487.347 54,505.647 C39.87,524.507 54.027,542.542 74.097,558.192" style="stroke:#555;stroke-width:1;" fill="none" id="Controllers-to-Validation\n(ErrorBag / Input / Validate)"/><polygon points="78.04,561.267,73.402,552.578,74.097,558.192,68.483,558.887,78.04,561.267" fill="#555" style="stroke:#555;stroke-width:1;stroke-linejoin:miter;stroke-miterlimit:10;"/><text x="55" y="517.786" fill="#000" font-size="12" textLength="195.404">validates $_POST/$_GET/$_FILES</text></g><!--link Controllers to ServiceFactory--><g class="link" data-entity-1="ent0006" data-entity-2="ent0009" id="lnk21" data-source-line="41" data-link-type="dependency"><path d="M254.04,474.117 C323.75,497.537 456.19,542.024 529.44,566.634" style="stroke:#555;stroke-width:1;" fill="none" id="Controllers-to-ServiceFactory"/><polygon points="534.18,568.227,526.923,561.569,529.44,566.634,524.375,569.152,534.18,568.227" fill="#555" style="stroke:#555;stroke-width:1;stroke-linejoin:miter;stroke-miterlimit:10;"/><text x="386.85" y="517.786" fill="#000" font-size="12" textLength="115.33">builds a service via</text></g><!--link ServiceFactory to Services--><g class="link" data-entity-1="ent0009" data-entity-2="ent0010" id="lnk22" data-source-line="42" data-link-type="dependency"><path d="M581.86,603.087 C580.13,628.087 577.206,670.349 575.476,695.269" style="stroke:#555;stroke-width:1;" fill="none" id="ServiceFactory-to-Services"/><polygon points="575.13,700.257,579.744,691.556,575.476,695.269,571.763,691.001,575.13,700.257" fill="#555" style="stroke:#555;stroke-width:1;stroke-linejoin:miter;stroke-miterlimit:10;"/><text x="580.04" y="660.736" fill="#000" font-size="12" textLength="62.596">constructs</text></g><!--link Controllers to Repositories--><g class="link" data-entity-1="ent0006" data-entity-2="ent0012" id="lnk23" data-source-line="43" data-link-type="dependency"><path d="M230.62,475.757 C239.31,483.867 248.91,494.367 255,505.647 C290.73,571.847 258.12,603.937 293,670.597 C328.58,738.607 393.173,797.413 427.483,825.903" style="stroke:#555;stroke-width:1;" fill="none" id="Controllers-to-Repositories"/><polygon points="431.33,829.097,426.961,820.27,427.483,825.903,421.851,826.425,431.33,829.097" fill="#555" style="stroke:#555;stroke-width:1;stroke-linejoin:miter;stroke-miterlimit:10;"/><text x="365.007" y="653.736" fill="#000" font-size="12" textLength="75.691">calls directly</text><text x="294" y="667.704" fill="#000" font-size="12" textLength="217.705">(simple CRUD — no service needed)</text></g><!--link Services to Repositories--><g class="link" data-entity-1="ent0010" data-entity-2="ent0012" id="lnk24" data-source-line="44" data-link-type="dependency"><path d="M538.52,733.297 C522.48,741.297 504.2,752.477 491,766.567 C473.86,784.877 464.269,807.4 458.449,824.64" style="stroke:#555;stroke-width:1;" fill="none" id="Services-to-Repositories"/><polygon points="456.85,829.377,463.519,822.129,458.449,824.64,455.939,819.57,456.85,829.377" fill="#555" style="stroke:#555;stroke-width:1;stroke-linejoin:miter;stroke-miterlimit:10;"/><text x="492" y="778.706" fill="#000" font-size="12" textLength="102.908">queries / persists</text></g><!--link Controllers to Value Objects & Enums--><g class="link" data-entity-1="ent0006" data-entity-2="ent0014" id="lnk25" data-source-line="46" data-link-type="dependency"><path d="M254.12,460.487 C381.78,464.077 749,483.227 749,584.627 C749,584.627 749,584.627 749,847.547 C749,905.067 694.165,946.968 656.285,969.538" style="stroke:#555;stroke-width:1;stroke-dasharray:7,7;" fill="none" id="Controllers-to-Value Objects &amp; Enums"/><polygon points="651.99,972.097,661.769,970.926,656.285,969.538,657.674,964.054,651.99,972.097" fill="#555" style="stroke:#555;stroke-width:1;stroke-linejoin:miter;stroke-miterlimit:10;"/><text x="750" y="722.226" fill="#000" font-size="12" textLength="93.879">renders to Twig</text></g><!--link Services to Value Objects & Enums--><g class="link" data-entity-1="ent0010" data-entity-2="ent0014" id="lnk26" data-source-line="47" data-link-type="dependency"><path d="M584.43,734.797 C589.7,743.797 595.67,755.407 599,766.567 C621.17,840.977 622.196,929.978 621.556,967.238" style="stroke:#555;stroke-width:1;stroke-dasharray:7,7;" fill="none" id="Services-to-Value Objects &amp; Enums"/><polygon points="621.47,972.237,625.624,963.307,621.556,967.238,617.625,963.17,621.47,972.237" fill="#555" style="stroke:#555;stroke-width:1;stroke-linejoin:miter;stroke-miterlimit:10;"/><text x="619.97" y="851.186" fill="#000" font-size="12" textLength="27.492">uses</text></g><!--link Repositories to Value Objects & Enums--><g class="link" data-entity-1="ent0012" data-entity-2="ent0014" id="lnk27" data-source-line="48" data-link-type="dependency"><path d="M471.72,863.997 C504.28,891.157 565.09,941.884 597.57,968.974" style="stroke:#555;stroke-width:1;stroke-dasharray:7,7;" fill="none" id="Repositories-to-Value Objects &amp; Enums"/><polygon points="601.41,972.177,597.06,963.34,597.57,968.974,591.936,969.484,601.41,972.177" fill="#555" style="stroke:#555;stroke-width:1;stroke-linejoin:miter;stroke-miterlimit:10;"/><text x="527.38" y="907.676" fill="#000" font-size="12" textLength="52.951">hydrates</text></g><!--link Repositories to Database\n(connection + transactions)--><g class="link" data-entity-1="ent0012" data-entity-2="ent0016" id="lnk28" data-source-line="50" data-link-type="dependency"><path d="M408.1,863.937 C394.37,871.377 380.79,881.687 373,895.537 C361.04,916.787 363.093,940.458 367.723,960.278" style="stroke:#555;stroke-width:1;" fill="none" id="Repositories-to-Database\n(connection + transactions)"/><polygon points="368.86,965.147,370.708,955.473,367.723,960.278,362.918,957.293,368.86,965.147" fill="#555" style="stroke:#555;stroke-width:1;stroke-linejoin:miter;stroke-miterlimit:10;"/><text x="374" y="907.676" fill="#000" font-size="12" textLength="126.686">prepared statements</text></g><!--link Database\n(connection + transactions) to db--><g class="link" data-entity-1="ent0016" data-entity-2="ent0002" id="lnk29" data-source-line="51" data-link-type="dependency"><path d="M376,1013.747 C376,1035.897 376,1063.947 376,1085.227" style="stroke:#555;stroke-width:1;" fill="none" id="Database\n(connection + transactions)-to-db"/><polygon points="376,1090.227,380,1081.227,376,1085.227,372,1081.227,376,1090.227" fill="#555" style="stroke:#555;stroke-width:1;stroke-linejoin:miter;stroke-miterlimit:10;"/><text x="377" y="1057.626" fill="#000" font-size="12" textLength="61.342">SQL / PDO</text></g><?plantuml-src ZLHXQzim4FskNt6aPIoCD6kXhEn38OdjjP2IhCdAO2r5iQw9Lbdo9BaXtGRx4Vk5-oKxsMxcP9J67nBBkdltxjwJlFGAOOm-LLBBp_0wN-GTlvJpJkObsZRy-VKRXdo55desNKYFgIyiCkRkfSwvvHca9ikDHkqdVaLObYAudYjiX0YyuuNoYQ4W-OXmUDJOx5bhbWEZZ8Mzu_9fR8vvUi_ds3TMeAs3Jig7CPvwMWwKfDfCSCzdt26qBhYLFEgtW3iGCyRo2W9QPzxdrzS38c6DKjGH_00ucqx7q3U55jokMh2NzE91_0w-Cu0lbwRmQ6_2wuKKGk6IMxpMhtk5NtH7IussUuM-snEPrEqox1-uAzTNN4bY9escj9WQjNq-XowSwxpmz5_l8sN_R32Te7sGAPO4-uMJ6fs3ePdBD31CagFeRSMm3apAKQnk6f_S9k8bviR945I2ZecWT1vrYeGO7oR7SLpt_1Gejo4Yat6fo_J9WWOXO423BmVoYDO03MiMvaXgvwW5OHD4ko9y4fzKyDHmWJ2QVIMNE7W5iIwohJhd-ivovsrHEYtGY-CegUb5jSnKD3LQ4mhD5jw0jrmxNgvSDSpA5z0HPgaxfsinuNqbkSLl1JhFrj_NWJj8JI2aCiASf6Cx9QpHcmuXc3jZAL4ujhdH2Q6xcuU07kg5W_tRyMWoxUxVVeZ3Rt8-Z2Ti6_-9pfQ126XMI2KSS72r2HyaP__5THh9PIEaHgMPUwxKXhD21bUAJgWC5uPQKOjEPZaDTN3vAIgl7MtM73IYGD5cZPBFufAkuPK6b5SkTzlT7uJKWzFdt1ZK3GQs3ho1ALs6pRel9nSEQGYRj5xEMgo43VgnxTHrexjvdw1oYtbvG9qdn8oE0V7PCVkfcfWHqEJZaCOuZaRiBm00?></g></svg>